<svg width="40" height="40" viewBox="0 0 40 40" fill="none" xmlns="http://www.w3.org/2000/svg">
<g clip-path="url(#clip0_136_516)">
<path d="M20.0097 0.303223C11.7851 0.303223 9.37972 0.311708 8.91216 0.350495C7.22433 0.490798 6.17406 0.756556 5.02985 1.32625C4.14806 1.76413 3.45263 2.27171 2.76628 2.98322C1.51632 4.2808 0.758768 5.87716 0.484533 7.77474C0.351204 8.69595 0.312417 8.88383 0.304539 13.5893C0.301509 15.1578 0.304539 17.222 0.304539 19.9908C0.304539 28.209 0.31363 30.612 0.353022 31.0787C0.489382 32.7211 0.74695 33.7544 1.29239 34.8847C2.33478 37.0484 4.32563 38.6726 6.67101 39.2787C7.48311 39.4878 8.38005 39.6029 9.53153 39.6575C10.0194 39.6787 14.992 39.6938 19.9676 39.6938C24.9432 39.6938 29.9188 39.6878 30.3945 39.6635C31.7278 39.6008 32.502 39.4969 33.3581 39.2756C35.7186 38.6666 37.6731 37.0666 38.7367 34.8726C39.2715 33.7696 39.5427 32.6969 39.6655 31.1402C39.6921 30.8008 39.7033 25.3896 39.7033 19.9856C39.7033 14.5808 39.6912 9.17959 39.6646 8.84019C39.5403 7.25837 39.2691 6.19474 38.717 5.0705C38.264 4.15019 37.761 3.46292 37.0307 2.76019C35.7274 1.51534 34.1335 0.757768 32.2342 0.483829C31.3139 0.350798 31.1306 0.311404 26.4216 0.303223H20.0097Z" fill="url(#paint0_radial_136_516)"/>
<path d="M20.0097 0.303223C11.7851 0.303223 9.37972 0.311708 8.91216 0.350495C7.22433 0.490798 6.17406 0.756556 5.02985 1.32625C4.14806 1.76413 3.45263 2.27171 2.76628 2.98322C1.51632 4.2808 0.758768 5.87716 0.484533 7.77474C0.351204 8.69595 0.312417 8.88383 0.304539 13.5893C0.301509 15.1578 0.304539 17.222 0.304539 19.9908C0.304539 28.209 0.31363 30.612 0.353022 31.0787C0.489382 32.7211 0.74695 33.7544 1.29239 34.8847C2.33478 37.0484 4.32563 38.6726 6.67101 39.2787C7.48311 39.4878 8.38005 39.6029 9.53153 39.6575C10.0194 39.6787 14.992 39.6938 19.9676 39.6938C24.9432 39.6938 29.9188 39.6878 30.3945 39.6635C31.7278 39.6008 32.502 39.4969 33.3581 39.2756C35.7186 38.6666 37.6731 37.0666 38.7367 34.8726C39.2715 33.7696 39.5427 32.6969 39.6655 31.1402C39.6921 30.8008 39.7033 25.3896 39.7033 19.9856C39.7033 14.5808 39.6912 9.17959 39.6646 8.84019C39.5403 7.25837 39.2691 6.19474 38.717 5.0705C38.264 4.15019 37.761 3.46292 37.0307 2.76019C35.7274 1.51534 34.1335 0.757768 32.2342 0.483829C31.3139 0.350798 31.1306 0.311404 26.4216 0.303223H20.0097Z" fill="url(#paint1_radial_136_516)"/>
<path d="M20.0006 5.45459C16.0504 5.45459 15.5547 5.47186 14.0032 5.54247C12.4548 5.61338 11.3978 5.85853 10.473 6.21823C9.51637 6.58974 8.70488 7.08671 7.89642 7.8955C7.08736 8.70398 6.5904 9.5155 6.21769 10.4719C5.85709 11.397 5.61164 12.4543 5.54195 14.0022C5.47256 15.5537 5.45438 16.0497 5.45438 20C5.45438 23.9503 5.47195 24.4446 5.54225 25.9961C5.61346 27.5446 5.85861 28.6016 6.21799 29.5264C6.5898 30.4831 7.08675 31.2946 7.89551 32.1031C8.70367 32.9122 9.51516 33.4103 10.4712 33.7819C11.3966 34.1416 12.4539 34.3867 14.002 34.4576C15.5535 34.5282 16.0489 34.5455 19.9988 34.5455C23.9493 34.5455 24.4435 34.5282 25.995 34.4576C27.5434 34.3867 28.6016 34.1416 29.527 33.7819C30.4833 33.4103 31.2936 32.9122 32.1018 32.1031C32.9108 31.2946 33.4078 30.4831 33.7805 29.5267C34.1381 28.6016 34.3835 27.5443 34.4562 25.9964C34.5259 24.4449 34.5441 23.9503 34.5441 20C34.5441 16.0497 34.5259 15.554 34.4562 14.0025C34.3835 12.454 34.1381 11.397 33.7805 10.4722C33.4078 9.5155 32.9108 8.70398 32.1018 7.8955C31.2927 7.08641 30.4836 6.58944 29.5261 6.21823C28.5988 5.85853 27.5413 5.61338 25.9928 5.54247C24.4414 5.47186 23.9475 5.45459 19.9961 5.45459H20.0006ZM18.6958 8.0758C19.0831 8.0752 19.5152 8.0758 20.0006 8.0758C23.8841 8.0758 24.3444 8.08974 25.878 8.15944C27.2961 8.22429 28.0658 8.46126 28.5785 8.66035C29.2573 8.92398 29.7412 9.23914 30.25 9.74823C30.7591 10.2573 31.0742 10.7422 31.3384 11.421C31.5375 11.9331 31.7748 12.7028 31.8393 14.121C31.909 15.6543 31.9242 16.1149 31.9242 19.9967C31.9242 23.8785 31.909 24.3391 31.8393 25.8725C31.7745 27.2907 31.5375 28.0603 31.3384 28.5725C31.0748 29.2513 30.7591 29.7346 30.25 30.2434C29.7409 30.7525 29.2576 31.0676 28.5785 31.3313C28.0664 31.5313 27.2961 31.7676 25.878 31.8325C24.3447 31.9022 23.8841 31.9173 20.0006 31.9173C16.1168 31.9173 15.6565 31.9022 14.1232 31.8325C12.7051 31.767 11.9354 31.53 11.4224 31.331C10.7436 31.0673 10.2588 30.7522 9.7497 30.2431C9.24063 29.734 8.92548 29.2503 8.66125 28.5713C8.46216 28.0591 8.2249 27.2894 8.16036 25.8713C8.09066 24.3379 8.07672 23.8773 8.07672 19.9931C8.07672 16.1088 8.09066 15.6507 8.16036 14.1173C8.2252 12.6991 8.46216 11.9294 8.66125 11.4167C8.92488 10.7379 9.24063 10.2531 9.7497 9.74398C10.2588 9.23489 10.7436 8.91974 11.4224 8.6555C11.9351 8.4555 12.7051 8.21914 14.1232 8.15398C15.465 8.09338 15.985 8.0752 18.6958 8.07217V8.0758ZM27.7646 10.491C26.801 10.491 26.0192 11.2719 26.0192 12.2358C26.0192 13.1994 26.801 13.9813 27.7646 13.9813C28.7282 13.9813 29.51 13.1994 29.51 12.2358C29.51 11.2722 28.7282 10.4903 27.7646 10.4903V10.491ZM20.0006 12.5303C15.8756 12.5303 12.5311 15.8749 12.5311 20C12.5311 24.1252 15.8756 27.4682 20.0006 27.4682C24.1256 27.4682 27.4689 24.1252 27.4689 20C27.4689 15.8749 24.1256 12.5303 20.0006 12.5303ZM20.0006 15.1516C22.6781 15.1516 24.8489 17.3222 24.8489 20C24.8489 22.6776 22.6781 24.8485 20.0006 24.8485C17.3228 24.8485 15.1523 22.6776 15.1523 20C15.1523 17.3222 17.3228 15.1516 20.0006 15.1516Z" fill="white"/>
</g>
<defs>
<radialGradient id="paint0_radial_136_516" cx="0" cy="0" r="1" gradientUnits="userSpaceOnUse" gradientTransform="translate(10.7689 42.7277) rotate(-90) scale(39.039 36.3181)">
<stop stop-color="#FFDD55"/>
<stop offset="0.1" stop-color="#FFDD55"/>
<stop offset="0.5" stop-color="#FF543E"/>
<stop offset="1" stop-color="#C837AB"/>
</radialGradient>
<radialGradient id="paint1_radial_136_516" cx="0" cy="0" r="1" gradientTransform="matrix(3.42599 17.1112 -70.5485 14.1263 -6.29654 3.14086)" gradientUnits="userSpaceOnUse">
<stop stop-color="#3771C8"/>
<stop offset="0.128" stop-color="#3771C8"/>
<stop offset="1" stop-color="#6600FF" stop-opacity="0"/>
</radialGradient>
<clipPath id="clip0_136_516">
<rect width="40" height="40" fill="white"/>
</clipPath>
</defs>
</svg>
