<svg width="40" height="49" viewBox="0 0 40 49" fill="none" xmlns="http://www.w3.org/2000/svg">
<g clip-path="url(#clip0_136_580)">
<path d="M5.07927 -0.000802792C2.27939 -0.000802792 0.000213623 2.27171 0.000213623 5.0613V43.9367C0.000213623 46.7263 2.27939 48.9988 5.07927 48.9988H34.9147C37.7146 48.9988 39.9937 46.7264 39.9937 43.9367V11.9703C39.9937 11.9703 40.0736 11.0343 39.6658 10.1234C39.2835 9.26959 38.6605 8.67533 38.6605 8.67533C38.6589 8.67323 38.6574 8.67114 38.6558 8.66905L31.2535 1.43484C31.2495 1.43071 31.2454 1.42663 31.2412 1.42258C31.2412 1.42258 30.6092 0.822986 29.6724 0.422435C28.5693 -0.0491932 27.4323 0.000593361 27.4323 0.000593361L27.4493 -0.000976562L5.07927 -0.000802792Z" fill="#FF2116"/>
<path d="M5.07916 1.6626H27.4492C27.4548 1.66265 27.4605 1.66265 27.4661 1.6626C27.4661 1.6626 28.3606 1.67124 29.0149 1.95098C29.6447 2.22023 30.0912 2.62781 30.0942 2.63054C30.0942 2.63055 30.0973 2.63368 30.0973 2.63368L37.4811 9.85101C37.4811 9.85101 37.9259 10.319 38.1415 10.8005C38.3156 11.1892 38.3263 11.9004 38.3263 11.9004C38.3255 11.9121 38.325 11.9239 38.3247 11.9357V43.9374C38.3247 45.8348 36.8189 47.3367 34.9145 47.3367H5.07916C3.17479 47.3367 1.66901 45.8349 1.66901 43.9374V5.06194C1.66901 3.1644 3.17479 1.6626 5.07916 1.6626Z" fill="#F5F5F5"/>
<path d="M9.98619 29.1737C8.83794 28.0296 10.0803 26.4575 13.4518 24.7881L15.5732 23.7377L16.3996 21.936C16.8542 20.9451 17.5326 19.3282 17.9072 18.343L18.5883 16.5516L18.119 15.2259C17.5418 13.5959 17.336 11.1463 17.7022 10.2655C18.1982 9.07241 19.8229 9.19482 20.4661 10.4737C20.9684 11.4726 20.917 13.2814 20.3216 15.5627L19.8334 17.4329L20.2634 18.1602C20.4999 18.5602 21.1907 19.51 21.7985 20.2709L22.9409 21.6867L24.3624 21.5019C28.8784 20.9148 30.4252 21.9127 30.4252 23.3435C30.4252 25.1492 26.8792 25.2983 23.9014 23.2145C23.2314 22.7456 22.7713 22.2798 22.7713 22.2798C22.7713 22.2798 20.9059 22.6582 19.9874 22.9049C19.0394 23.1595 18.5664 23.3189 17.1777 23.786C17.1777 23.786 16.6904 24.491 16.3729 25.0035C15.1916 26.9104 13.8124 28.4907 12.8273 29.0658C11.7245 29.7098 10.5683 29.7537 9.98619 29.1737ZM11.7882 28.5323C12.4337 28.1348 13.7401 26.5953 14.6444 25.1665L15.0105 24.5879L13.3434 25.4231C10.7685 26.7131 9.59052 27.9288 10.2031 28.6642C10.5472 29.0773 10.9588 29.043 11.7882 28.5323ZM28.5136 23.8546C29.1449 23.4141 29.0533 22.5262 28.3396 22.1683C27.7841 21.8897 27.3364 21.8324 25.8934 21.8537C25.0067 21.9139 23.5809 22.0919 23.3392 22.1461C23.3392 22.1461 24.1225 22.6855 24.4703 22.8838C24.9332 23.1472 26.0583 23.6363 26.8796 23.8868C27.6898 24.1338 28.1585 24.1078 28.5136 23.8546ZM21.7885 21.0697C21.4065 20.6695 20.7568 19.8343 20.3448 19.2137C19.806 18.5096 19.5358 18.0129 19.5358 18.0129C19.5358 18.0129 19.142 19.275 18.8189 20.0344L17.8109 22.5169L17.5187 23.08C17.5187 23.08 19.0724 22.5724 19.8629 22.3667C20.7002 22.1488 22.3994 21.8158 22.3994 21.8158L21.7885 21.0697ZM19.6213 12.4102C19.7188 11.5953 19.7601 10.7817 19.4974 10.3714C18.7685 9.57752 17.8889 10.2395 18.0379 12.1269C18.088 12.7618 18.2463 13.8471 18.4579 14.5161L18.8428 15.7324L19.1136 14.8163C19.2625 14.3125 19.491 13.2297 19.6213 12.4102Z" fill="#FF2116"/>
<path d="M11.9389 34.4717H13.8031C14.3988 34.4717 14.8823 34.5285 15.2537 34.642C15.6251 34.7519 15.9376 34.9992 16.1913 35.3839C16.445 35.7649 16.5719 36.2247 16.5719 36.7633C16.5719 37.2578 16.4689 37.6828 16.263 38.0382C16.0571 38.3936 15.7795 38.65 15.4302 38.8075C15.0846 38.9651 14.5514 39.0438 13.8307 39.0438H13.1854V41.9729H11.9389V34.4717ZM13.1854 35.4334V38.0492H13.8031C14.3547 38.0492 14.7352 37.9466 14.9448 37.7414C15.1581 37.5363 15.2647 37.2029 15.2647 36.7413C15.2647 36.3969 15.1949 36.1185 15.0551 35.906C14.9154 35.6898 14.761 35.5579 14.5918 35.5103C14.4264 35.459 14.1635 35.4333 13.8031 35.4333L13.1854 35.4334ZM17.5261 34.4717H19.2193C20.0393 34.4717 20.6938 34.6164 21.1828 34.9058C21.6756 35.1952 22.0469 35.6257 22.297 36.1972C22.5507 36.7688 22.6775 37.4026 22.6775 38.0986C22.6775 38.8314 22.5635 39.4853 22.3356 40.0605C22.1113 40.632 21.7656 41.0936 21.2987 41.4453C20.8354 41.797 20.1735 41.9729 19.3131 41.9729H17.5261V34.4717ZM18.7726 35.4663V40.9782H19.291C20.0154 40.9782 20.5412 40.7291 20.8685 40.2308C21.1957 39.7289 21.3593 39.0603 21.3593 38.225C21.3593 36.3859 20.6699 35.4663 19.291 35.4663H18.7726ZM23.8744 34.4717H28.0551V35.4663H25.1209V37.7085H27.4705V38.7031H25.1209V41.9729H23.8744V34.4717Z" fill="#2C2C2C"/>
</g>
<defs>
<clipPath id="clip0_136_580">
<rect width="40" height="49" fill="white"/>
</clipPath>
</defs>
</svg>
